<svg xmlns="http://www.w3.org/2000/svg" xmlns:xlink="http://www.w3.org/1999/xlink" viewBox="0 0 285 235"><defs><symbol id="logo" viewBox="0 0 285 235"><path d="M241.665 182.894c-.301-.754-.943-1.029-1.658-.604l-14.17 8.443v-7.387c0-.829-.528-1.131-1.281-.829l-4.372 1.582c-.603.227-.83.679-.83 1.282v32.478c0 .678.453 1.13 1.131 1.13h4.221c.679 0 1.131-.452 1.131-1.13v-19.894s15.864-9.79 16.507-10.175c.642-.385.971-.71.677-1.432-.321-.791-1.356-3.464-1.356-3.464M7.993 196.603c1.432-5.2 5.502-8.366 11.23-8.366 6.256 0 9.573 3.693 9.874 8.366H7.993Zm27.963 1.96c0-9.045-6.18-16.657-16.506-16.657-10.176 0-18.618 7.311-18.618 19.219 0 10.854 7.085 18.768 18.994 18.768 5.427 0 10.854-1.884 14.924-5.502.528-.452.528-1.055.151-1.583l-2.035-3.165c-.377-.603-.98-.679-1.583-.227-3.693 2.714-7.462 4.071-11.457 4.071-7.612 0-11.758-4.975-12.286-11.231h27.302c.698 0 1.114-.506 1.114-1.115v-2.578ZM59.733 213.487c-6.406 0-11.909-4.372-11.909-12.663s5.503-12.587 11.909-12.587c6.708 0 11.909 4.296 11.909 12.587 0 8.367-5.201 12.663-11.909 12.663m12.965 20.577h4.221c.678 0 1.13-.452 1.13-1.131v-49.595c0-.83-.527-1.13-1.357-.83l-4.296 1.583c-.603.227-.829.678-.829 1.282v1.583c-2.336-3.166-6.935-5.05-11.909-5.05-9.874 0-18.467 7.386-18.467 18.994 0 10.25 6.633 18.993 18.09 18.993 5.201 0 10.176-2.336 12.286-4.973v18.013c0 .679.452 1.131 1.131 1.131M99.52 219.893c3.919 0 8.216-1.281 11.005-5.351v3.317c0 .678.452 1.13 1.13 1.13h4.221c.679 0 1.131-.452 1.131-1.13v-34.446c0-.905-.528-1.206-1.282-.905l-4.372 1.583c-.602.227-.828.678-.828 1.281v18.09c0 6.407-4.146 10.025-9.799 10.025-5.578 0-9.346-3.543-9.346-10.025v-20.125c0-.829-.528-1.13-1.281-.829l-4.372 1.583c-.603.227-.829.678-.829 1.281v18.316c0 10.703 6.482 16.205 14.622 16.205M125.825 178.664l4.598-1.508c.754-.225 1.055-.602 1.055-1.356v-5.502c0-.679-.528-1.206-1.357-.905l-4.523 1.659c-.677.225-1.054.527-1.054 1.28v5.276c0 .829.452 1.358 1.281 1.056M125.9 218.989h4.22c.679 0 1.132-.452 1.132-1.13v-34.521c0-.829-.528-1.13-1.282-.829l-4.372 1.583c-.603.226-.829.677-.829 1.281v32.486c0 .678.452 1.13 1.131 1.13M140.144 218.989h4.221c.678 0 1.131-.452 1.131-1.13v-19.522c0-6.407 4.145-10.025 9.798-10.025 5.578 0 9.346 3.543 9.346 10.025v19.522c0 .678.453 1.13 1.131 1.13h4.221c.678 0 1.131-.452 1.131-1.13v-19.748c0-10.703-6.483-16.205-14.623-16.205-3.919 0-8.215 1.281-11.004 5.352v-3.92c0-.829-.528-1.13-1.282-.829l-4.372 1.583c-.602.226-.828.677-.828 1.281v32.486c0 .678.452 1.13 1.13 1.13M195.276 213.562c-7.462 0-11.984-5.577-11.984-12.662 0-7.086 4.522-12.663 11.984-12.663 7.387 0 11.909 5.577 11.909 12.663 0 7.085-4.522 12.662-11.909 12.662m0-31.656c-10.854 0-18.617 8.064-18.617 18.994 0 10.929 7.763 18.993 18.617 18.993 10.854 0 18.542-8.064 18.542-18.993 0-10.93-7.688-18.994-18.542-18.994M176.919 31.419v38.515c0 1.14.572 2.195 1.561 2.764l33.372 19.227c1.416.815 3.222-.206 3.223-1.84V51.57a3.187 3.187 0 0 0-1.597-2.765l-33.372-19.226c-1.416-.815-3.185.205-3.187 1.84M279.71 1.345l-48.046 27.679a4.588 4.588 0 0 0-2.299 3.982v55.448c.003 2.353 2.601 3.823 4.639 2.649l48.047-27.679c1.423-.82 2.246-2.339 2.245-3.982l.001-55.449c-.002-2.352-2.548-3.822-4.587-2.648M213.8 119.277l-13.352 7.693a1.273 1.273 0 0 0-.639 1.106l-.001 15.409c.001.655.724 1.063 1.291.737l13.352-7.693c.396-.227.625-.649.624-1.106v-15.41a.85.85 0 0 0-1.275-.736m-7.781-14.219-19.997-11.57a1.917 1.917 0 0 0-1.916 0l-19.996 11.57a1.275 1.275 0 0 0 0 2.207l19.996 11.57a1.912 1.912 0 0 0 1.916 0l19.997-11.57a1.275 1.275 0 0 0 0-2.207m32.192 2.086 8.884 5.14a1.7 1.7 0 0 0 1.703 0l8.884-5.14a1.134 1.134 0 0 0 0-1.962l-8.884-5.141a1.7 1.7 0 0 0-1.703 0l-8.884 5.141a1.134 1.134 0 0 0 0 1.962m-7.147 12.372 8.894 5.124c.527.303.852.866.851 1.474l-.01 10.264a1.133 1.133 0 0 1-1.699.981l-8.893-5.124a1.69 1.69 0 0 1-.841-1.474l-.001-10.264c0-.87.944-1.416 1.699-.981"/></symbol><style>use,use:target~use:last-child{display:none}use:last-child,use:target{display:inline}</style></defs><use xlink:href="#logo" id="red" fill="#ff1234"/><use xlink:href="#logo" id="white" fill="#fff"/><use xlink:href="#logo" id="black" fill="#000"/></svg>